<svg version="1.2" baseProfile="tiny-ps" xmlns="http://www.w3.org/2000/svg" viewBox="0 0 512 512" width="512" height="512">
	<g id="Layer">
		<g id="Layer">
			<path fill="#6ec6fe" id="Layer" class="shp0" d="M210 0C325.8 0 420 94.21 420 210C420 260.94 401.77 307.71 371.48 344.11L506.1 477.81C513.93 485.59 513.98 498.26 506.19 506.09C502.28 510.03 497.14 512 492 512C486.91 512 481.81 510.06 477.91 506.19L343.11 372.31C306.85 402.1 260.48 420 210 420C173.98 420 138.43 410.72 107.2 393.15C97.57 387.74 94.16 375.55 99.57 365.92C104.98 356.29 117.18 352.87 126.81 358.29C152.06 372.49 180.83 380 210 380C303.74 380 380 303.74 380 210C380 116.26 303.74 40 210 40C116.26 40 40 116.26 40 210C40 239.53 47.69 268.61 62.22 294.09C67.69 303.69 64.35 315.9 54.76 321.37C45.16 326.84 32.95 323.5 27.47 313.91C9.5 282.4 0 246.47 0 210C0 94.21 94.21 0 210 0Z" />
		</g>
	</g>
</svg>
